<svg width="215" height="78" viewBox="0 0 215 78" fill="none" xmlns="http://www.w3.org/2000/svg">
<g clip-path="url(#clip0)">
<path d="M40.9667 14.8489L128.595 15.3485L128.54 15.5087L40.9667 16.0232C39.3715 16.0232 37.6898 16.6838 36.266 17.7486C34.8346 18.8187 33.6749 20.2867 33.1324 21.8943L21.5341 56.2603C21.321 56.8913 21.2199 57.4987 21.2199 58.0664C21.2199 58.9043 21.4434 59.6471 21.8534 60.2388C22.26 60.8255 22.8554 61.2728 23.6035 61.5251C24.0558 61.6777 24.5685 61.7598 25.1345 61.7598H31.2218C31.0272 62.4247 30.4217 62.9139 29.6989 62.9341H25.1345C24.4456 62.9341 23.8079 62.8293 23.2321 62.635C22.2371 62.2992 21.4403 61.6976 20.8903 60.9037C20.3436 60.1148 20.0459 59.1446 20.0459 58.0664C20.0459 57.3811 20.1677 56.6488 20.424 55.8887L32.0223 21.5226C32.6443 19.6804 33.9544 18.0121 35.5641 16.8084C37.1812 15.5994 39.1122 14.8489 40.9667 14.8489ZM82.6212 62.2667L174.27 61.7598C175.865 61.7598 177.547 61.0992 178.971 60.0344C180.402 58.9643 181.562 57.4962 182.104 55.8887L193.702 21.5226C193.915 20.8917 194.016 20.2842 194.016 19.7165C194.016 18.8786 193.793 18.1362 193.383 17.5444C192.977 16.9574 192.381 16.5105 191.633 16.2578C191.181 16.1052 190.668 16.0232 190.102 16.0232H183.514C183.705 15.3673 184.296 14.8819 185.006 14.8489H190.102C190.791 14.8489 191.428 14.9536 192.004 15.148C192.999 15.4838 193.796 16.0856 194.346 16.8793C194.893 17.6682 195.191 18.6383 195.191 19.7165C195.191 20.4018 195.069 21.1342 194.812 21.8943L183.214 56.2603C182.592 58.1028 181.282 59.7708 179.672 60.9745C178.055 62.1835 176.124 62.9341 174.27 62.9341L82.5661 62.4269L82.6212 62.2667Z" fill="#E01E26"/>
<path fill-rule="evenodd" clip-rule="evenodd" d="M44.429 22.7302H181.362C183.358 22.7302 184.399 24.4638 183.676 26.5824L175.455 50.6575C174.732 52.7761 172.507 54.5097 170.511 54.5097H33.5777C31.582 54.5097 30.5407 52.7761 31.2641 50.6575L39.4849 26.5824C40.2086 24.4638 42.4333 22.7302 44.429 22.7302Z" fill="#E01E26"/>
<path d="M137.179 12.4152L135.267 18.0591H136.625L137.345 15.9346H138.684C139.024 15.9332 139.348 15.8898 139.657 15.8039C139.966 15.7193 140.249 15.5977 140.507 15.4406C140.764 15.2846 140.985 15.0984 141.168 14.8844C141.353 14.6705 141.488 14.4338 141.578 14.175C141.664 13.916 141.687 13.6796 141.647 13.4657C141.608 13.25 141.512 13.0652 141.36 12.9081C141.209 12.7521 141.008 12.6305 140.757 12.5448C140.507 12.4603 140.214 12.4163 139.877 12.4152H137.179ZM175.322 18.0591L177.235 12.4152H175.877L173.964 18.0591H175.322ZM174.127 16.2993C174.213 16.0402 174.24 15.8039 174.206 15.5899C174.171 15.3745 174.083 15.1897 173.937 15.0323C173.791 14.8766 173.595 14.755 173.346 14.6691C173.1 14.5845 172.805 14.5408 172.465 14.5394H171.087L171.807 12.4152H170.448L168.536 18.0591H171.272C171.612 18.0577 171.933 18.0141 172.239 17.9295C172.543 17.8438 172.822 17.722 173.075 17.5648C173.327 17.4091 173.543 17.2226 173.723 17.0087C173.904 16.7947 174.037 16.5583 174.127 16.2993ZM172.768 16.2993C172.715 16.4564 172.626 16.5925 172.505 16.709C172.385 16.8249 172.239 16.9148 172.066 16.9784C171.894 17.0431 171.706 17.0748 171.498 17.0762H170.228L170.754 15.5224H172.025C172.231 15.5238 172.397 15.5568 172.525 15.6215C172.655 15.6862 172.74 15.7772 172.782 15.8937C172.824 16.01 172.821 16.1447 172.768 16.2993ZM168.405 16.3231H167.026C166.929 16.4749 166.813 16.611 166.675 16.7311C166.538 16.8515 166.379 16.9468 166.197 17.0168C166.015 17.0868 165.811 17.1224 165.582 17.1235C165.395 17.1224 165.237 17.0972 165.107 17.0456C164.978 16.9941 164.878 16.923 164.811 16.8303C164.766 16.7734 164.733 16.7073 164.714 16.6337C164.695 16.5594 164.691 16.4656 164.703 16.3522C164.716 16.2374 164.748 16.0906 164.797 15.9111C164.847 15.7313 164.918 15.5067 165.009 15.237C165.101 14.9676 165.181 14.743 165.254 14.5632C165.326 14.3837 165.394 14.2369 165.459 14.1221C165.524 14.0087 165.591 13.9132 165.66 13.8407C165.729 13.7664 165.807 13.7006 165.891 13.6438C166.02 13.5514 166.169 13.4802 166.332 13.4284C166.498 13.3769 166.673 13.3506 166.861 13.3506C167.088 13.3517 167.268 13.3875 167.403 13.4575C167.537 13.5275 167.632 13.6228 167.687 13.7429C167.744 13.8631 167.768 13.9992 167.762 14.1512H169.141C169.179 13.8552 169.159 13.5962 169.083 13.3744C169.007 13.1512 168.882 12.966 168.708 12.8168C168.534 12.6675 168.318 12.5552 168.06 12.4799C167.802 12.4045 167.51 12.3676 167.184 12.3676C166.802 12.3692 166.437 12.4216 166.089 12.5275C165.74 12.6344 165.41 12.7865 165.098 12.9859C164.875 13.1285 164.69 13.2791 164.539 13.4419C164.39 13.6029 164.263 13.776 164.162 13.9594C164.06 14.1448 163.968 14.3428 163.89 14.554C163.812 14.7654 163.731 14.9939 163.651 15.237C163.567 15.4801 163.493 15.7072 163.427 15.9204C163.362 16.1315 163.319 16.3295 163.296 16.5146C163.273 16.6981 163.283 16.8714 163.322 17.0325C163.364 17.1935 163.446 17.3456 163.572 17.4884C163.749 17.6878 163.976 17.8396 164.253 17.9454C164.529 18.0524 164.859 18.1051 165.239 18.1068C165.563 18.1068 165.879 18.0684 166.188 17.9945C166.495 17.9191 166.788 17.8065 167.065 17.6573C167.34 17.5083 167.592 17.3232 167.819 17.1C168.047 16.8781 168.242 16.6188 168.405 16.3231ZM159.157 12.4152L157.244 18.0591H158.603L159.323 15.9346H160.662C161.001 15.9332 161.325 15.8898 161.635 15.8039C161.943 15.7193 162.226 15.5977 162.484 15.4406C162.741 15.2846 162.962 15.0984 163.145 14.8844C163.33 14.6705 163.466 14.4338 163.555 14.175C163.641 13.916 163.664 13.6796 163.624 13.4657C163.585 13.25 163.49 13.0652 163.338 12.9081C163.187 12.7521 162.986 12.6305 162.734 12.5448C162.484 12.4603 162.191 12.4163 161.854 12.4152H159.157ZM159.658 14.9438L160.182 13.3979H161.453C161.656 13.3996 161.821 13.4312 161.951 13.4959C162.079 13.5595 162.166 13.6494 162.21 13.7653C162.253 13.8815 162.248 14.0179 162.196 14.175C162.141 14.3322 162.055 14.4669 161.933 14.5817C161.811 14.6968 161.664 14.7853 161.492 14.8489C161.32 14.9107 161.133 14.9427 160.929 14.9438H159.658ZM158.76 12.4152H157.352L155.111 15.134L154.576 12.4152H153.159L154.061 16.3312L153.723 16.7194C153.623 16.8342 153.501 16.923 153.364 16.9837C153.226 17.0445 153.064 17.0762 152.879 17.0762H152.332L151.999 18.0591H152.83C153.032 18.0577 153.223 18.0325 153.404 17.981C153.583 17.9309 153.752 17.8623 153.909 17.7738C154.066 17.685 154.211 17.5847 154.344 17.4699C154.477 17.3562 154.598 17.2358 154.706 17.1078L158.76 12.4152ZM151.887 16.3231H150.509C150.412 16.4749 150.296 16.611 150.158 16.7311C150.021 16.8515 149.861 16.9468 149.679 17.0168C149.498 17.0868 149.294 17.1224 149.065 17.1235C148.878 17.1224 148.72 17.0972 148.59 17.0456C148.46 16.9941 148.361 16.923 148.294 16.8303C148.248 16.7734 148.216 16.7073 148.197 16.6337C148.178 16.5594 148.174 16.4656 148.186 16.3522C148.199 16.2374 148.231 16.0906 148.28 15.9111C148.33 15.7313 148.401 15.5067 148.492 15.237C148.584 14.9676 148.665 14.743 148.737 14.5632C148.809 14.3837 148.877 14.2369 148.942 14.1221C149.006 14.0087 149.074 13.9132 149.143 13.8407C149.212 13.7664 149.29 13.7006 149.374 13.6438C149.503 13.5514 149.651 13.4802 149.815 13.4284C149.981 13.3769 150.156 13.3506 150.343 13.3506C150.571 13.3517 150.752 13.3875 150.885 13.4575C151.02 13.5275 151.115 13.6228 151.17 13.7429C151.227 13.8631 151.251 13.9992 151.245 14.1512H152.623C152.661 13.8552 152.642 13.5962 152.566 13.3744C152.49 13.1512 152.365 12.966 152.191 12.8168C152.017 12.6675 151.801 12.5552 151.543 12.4799C151.285 12.4045 150.993 12.3676 150.667 12.3676C150.285 12.3692 149.92 12.4216 149.572 12.5275C149.222 12.6344 148.892 12.7865 148.581 12.9859C148.358 13.1285 148.173 13.2791 148.022 13.4419C147.873 13.6029 147.746 13.776 147.645 13.9594C147.543 14.1448 147.451 14.3428 147.373 14.554C147.295 14.7654 147.214 14.9939 147.133 15.237C147.049 15.4801 146.976 15.7072 146.91 15.9204C146.845 16.1315 146.802 16.3295 146.779 16.5146C146.755 16.6981 146.765 16.8714 146.805 17.0325C146.847 17.1935 146.929 17.3456 147.055 17.4884C147.232 17.6878 147.459 17.8396 147.736 17.9454C148.012 18.0524 148.341 18.1051 148.722 18.1068C149.046 18.1068 149.362 18.0684 149.671 17.9945C149.978 17.9191 150.27 17.8065 150.547 17.6573C150.823 17.5083 151.074 17.3232 151.302 17.1C151.53 16.8781 151.725 16.6188 151.887 16.3231ZM145.536 18.0591L145.869 17.0762H142.643L143.108 15.7047H145.855L146.188 14.722H143.441L143.89 13.3979H147.116L147.449 12.4152H142.864L140.952 18.0591H145.536ZM137.681 14.9438L138.205 13.3979H139.476C139.679 13.3996 139.844 13.4312 139.974 13.4959C140.102 13.5595 140.189 13.6494 140.233 13.7653C140.276 13.8815 140.271 14.0179 140.219 14.175C140.164 14.3322 140.078 14.4669 139.956 14.5817C139.834 14.6968 139.686 14.7853 139.515 14.8489C139.343 14.9107 139.156 14.9427 138.952 14.9438H137.681Z" fill="#FEFEFE"/>
<path d="M43.9338 61.7002C44.0363 61.3969 44.1033 61.1305 44.1315 60.9014C44.1612 60.6721 44.1534 60.4718 44.1086 60.2999C44.0643 60.1265 43.9831 59.9739 43.8652 59.84C43.6865 59.6375 43.458 59.4827 43.1763 59.3779C42.8931 59.2732 42.5663 59.22 42.1922 59.22C41.8132 59.22 41.4475 59.2732 41.0935 59.3779C40.7398 59.4827 40.4065 59.6375 40.0917 59.84C39.9206 59.9504 39.7708 60.0655 39.6403 60.1859C39.5114 60.3066 39.3947 60.4441 39.291 60.5964C39.1885 60.7502 39.0902 60.9303 38.9995 61.137C38.9088 61.3425 38.8169 61.5862 38.7225 61.8671L38.5643 62.3359C38.5108 62.4894 38.4582 62.6551 38.4091 62.8302C38.3599 63.0049 38.3265 63.1822 38.308 63.3626C38.2879 63.544 38.298 63.7177 38.3355 63.8871C38.3713 64.0566 38.4509 64.2131 38.5699 64.3548C38.748 64.5573 38.9768 64.7124 39.26 64.8172C39.5434 64.9217 39.8736 64.9746 40.2525 64.9746C40.6297 64.9746 40.9952 64.923 41.3453 64.8197C41.6953 64.7164 42.0286 64.5615 42.3434 64.3548C42.5613 64.2117 42.7455 64.0582 42.8962 63.8964C43.0455 63.7348 43.1726 63.5665 43.274 63.3917C43.3737 63.2169 43.4602 63.038 43.5328 62.8565C43.6042 62.6736 43.6694 62.4894 43.7302 62.304L43.9338 61.7002ZM73.598 64.9273L75.5058 59.2679H74.1433L72.2355 64.9273H73.598ZM72.2952 63.1626C72.3814 62.9027 72.4072 62.6658 72.3733 62.4513C72.3383 62.2353 72.249 62.0499 72.1028 61.8923C71.9563 61.7357 71.7589 61.6139 71.5102 61.5279C71.2626 61.4431 70.9669 61.3994 70.626 61.398H69.2442L69.962 59.2679H68.5998L66.6924 64.9273H69.4364C69.7766 64.9256 70.0987 64.8822 70.4048 64.7973C70.7098 64.7113 70.9896 64.5892 71.2436 64.4316C71.4953 64.2753 71.7121 64.0885 71.8922 63.874C72.0723 63.6592 72.2061 63.4219 72.2952 63.1626ZM70.933 63.1626C70.8798 63.3203 70.7913 63.4567 70.6706 63.5732C70.5496 63.69 70.4031 63.7799 70.2298 63.8434C70.0575 63.9081 69.8688 63.9401 69.661 63.9415H68.3867L68.9121 62.3838H70.1861C70.393 62.3849 70.56 62.4179 70.6885 62.4829C70.8184 62.5479 70.9036 62.6395 70.9459 62.7557C70.9884 62.8722 70.9851 63.0075 70.933 63.1626ZM65.6357 66.1827L66.3913 63.9415H65.5875L67.1629 59.2679H62.9584L62.4708 60.7144C62.3604 61.0417 62.2375 61.3582 62.1006 61.6671C61.9644 61.9743 61.8146 62.2684 61.6541 62.5454C61.4917 62.8235 61.3189 63.0806 61.1352 63.315C60.9512 63.5508 60.7563 63.76 60.5499 63.9415H59.8931L59.1378 66.1827H60.451L60.8742 64.9273H64.7457L64.3222 66.1827H65.6357ZM64.2253 63.9415H62.0689C62.3159 63.679 62.5369 63.397 62.7279 63.0962C62.9192 62.7955 63.0906 62.4762 63.2401 62.1387C63.3913 61.8021 63.5294 61.4459 63.6538 61.0723L63.9296 60.2534H65.4685L64.2253 63.9415ZM60.388 61.7002C60.4902 61.3969 60.5572 61.1305 60.5854 60.9014C60.6151 60.6721 60.6076 60.4718 60.5628 60.2999C60.5182 60.1265 60.4373 59.9739 60.3191 59.84C60.1407 59.6375 59.9119 59.4827 59.6305 59.3779C59.347 59.2732 59.0202 59.22 58.6463 59.22C58.2671 59.22 57.9014 59.2732 57.5477 59.3779C57.194 59.4827 56.8607 59.6375 56.5456 59.84C56.3745 59.9504 56.2247 60.0655 56.0945 60.1859C55.9653 60.3066 55.8488 60.4441 55.7449 60.5964C55.6427 60.7502 55.5444 60.9303 55.4534 61.137C55.3629 61.3425 55.2711 61.5862 55.1761 61.8671L55.0182 62.3359C54.9647 62.4894 54.9126 62.6551 54.8633 62.8302C54.814 63.0049 54.7801 63.1822 54.7622 63.3626C54.7418 63.544 54.7519 63.7177 54.7894 63.8871C54.8255 64.0566 54.9051 64.2131 55.0238 64.3548C55.2022 64.5573 55.4307 64.7124 55.7141 64.8172C55.9976 64.9217 56.3275 64.9746 56.7064 64.9746C57.0839 64.9746 57.4494 64.923 57.7994 64.8197C58.1492 64.7164 58.4828 64.5615 58.7973 64.3548C59.0154 64.2117 59.1994 64.0582 59.3504 63.8964C59.4997 63.7348 59.6265 63.5665 59.7279 63.3917C59.8276 63.2169 59.9142 63.038 59.9867 62.8565C60.0581 62.6736 60.1236 62.4894 60.1844 62.304L60.388 61.7002ZM58.9264 61.9939C58.8491 62.2233 58.781 62.4207 58.7183 62.5877C58.6559 62.7532 58.5984 62.8949 58.5438 63.0128C58.4901 63.1293 58.4369 63.229 58.3834 63.3094C58.3296 63.3917 58.2733 63.462 58.2139 63.5216C58.1537 63.5799 58.0873 63.6356 58.0128 63.6872C57.8714 63.7863 57.7171 63.8619 57.553 63.9123C57.3869 63.9641 57.2169 63.9891 57.0385 63.9891C56.8624 63.9891 56.7095 63.9625 56.5804 63.9098C56.4507 63.858 56.3434 63.7838 56.2583 63.6872C56.1821 63.5981 56.1443 63.483 56.1443 63.3427C56.144 63.2021 56.1684 63.0433 56.2168 62.8657C56.265 62.6882 56.3233 62.5014 56.3913 62.304L56.4877 62.018C56.5649 61.785 56.6422 61.5702 56.7201 61.3767C56.7985 61.1834 56.8867 61.014 56.9836 60.8667C57.0803 60.7211 57.1959 60.6007 57.3303 60.5077C57.4732 60.4085 57.6275 60.3332 57.7964 60.2825C57.9641 60.231 58.1358 60.2058 58.3142 60.2058C58.492 60.2058 58.6452 60.231 58.7766 60.2825C58.9065 60.3332 59.0101 60.4085 59.0843 60.5077C59.1331 60.5676 59.1653 60.6362 59.1852 60.7132C59.2034 60.79 59.2078 60.8841 59.195 60.9939C59.1838 61.1053 59.1558 61.2417 59.1107 61.4047C59.0659 61.5666 59.0042 61.7637 58.9264 61.9939ZM54.1321 64.9273L52.934 62.0259L55.8925 59.2679H54.3539L52.5125 61.0961L51.9135 59.2679H50.3648L51.464 62.0259L48.3198 64.9273H49.8786L51.8855 62.9559L52.5736 64.9273H54.1321ZM49.6279 60.2534L49.9601 59.2679H44.9518L44.6197 60.2534H46.4423L44.867 64.9273H46.2294L47.8048 60.2534H49.6279ZM42.4725 61.9939C42.3952 62.2233 42.3271 62.4207 42.2644 62.5877C42.202 62.7532 42.1443 62.8949 42.0899 63.0128C42.0359 63.1293 41.9827 63.229 41.9295 63.3094C41.8757 63.3917 41.8194 63.462 41.76 63.5216C41.6995 63.5799 41.6334 63.6356 41.5589 63.6872C41.4175 63.7863 41.2629 63.8619 41.0988 63.9123C40.9327 63.9641 40.7625 63.9891 40.5846 63.9891C40.4082 63.9891 40.2556 63.9625 40.1265 63.9098C39.9968 63.858 39.8895 63.7838 39.8044 63.6872C39.7282 63.5981 39.6901 63.483 39.6901 63.3427C39.6901 63.2021 39.7142 63.0433 39.7627 62.8657C39.8111 62.6882 39.8691 62.5014 39.9374 62.304L40.0338 62.018C40.1108 61.785 40.1878 61.5702 40.2662 61.3767C40.3443 61.1834 40.4326 61.014 40.5297 60.8667C40.6261 60.7211 40.7417 60.6007 40.8759 60.5077C41.019 60.4085 41.1733 60.3332 41.3425 60.2825C41.5099 60.231 41.6819 60.2058 41.86 60.2058C42.0381 60.2058 42.1913 60.231 42.3227 60.2825C42.4523 60.3332 42.5562 60.4085 42.6304 60.5077C42.6789 60.5676 42.7114 60.6362 42.731 60.7132C42.7492 60.79 42.7537 60.8841 42.7411 60.9939C42.7296 61.1053 42.7016 61.2417 42.6565 61.4047C42.6117 61.5666 42.5503 61.7637 42.4725 61.9939Z" fill="#FEFEFE"/>
<path fill-rule="evenodd" clip-rule="evenodd" d="M166.4 35.6137C167.759 35.5776 168.606 34.8444 169.331 33.504L152.963 33.5023L149.475 43.8336H164.019C166.052 43.6552 167.351 43.15 167.968 41.547L168.499 39.984C169.226 37.8471 167.404 37.5181 165.921 37.5181C162.049 37.5181 159.217 37.5181 155.345 37.5181C155.433 37.2585 155.888 35.8755 155.976 35.612C159.242 35.6137 163.133 35.6137 166.4 35.6137ZM60.183 43.8328H59.8931L61.9238 37.755L55.5721 43.8328H53.1362L50.9058 36.7236L49.3532 41.305C48.8171 43.2842 47.2359 43.641 45.0997 43.8328H44.8098L44.7832 43.8322L48.2808 33.5015L52.0048 33.4799L54.6208 41.8377L63.3639 33.5015H67.0813L64.4362 41.305C63.9002 43.2842 62.3192 43.641 60.183 43.8328ZM82.1529 40.3212H71.8664C71.7474 40.6696 71.6292 41.018 71.5116 41.3669C70.9237 43.1122 69.6044 43.648 67.4969 43.8328H66.955C67.8406 41.2118 68.7233 38.5887 69.606 35.9677C70.0628 34.6122 71.6667 33.5015 73.4773 33.5015H84.7669C86.2498 33.5015 88.0663 33.828 87.3457 35.9677L85.5264 41.3669C84.9392 43.1108 83.6195 43.648 81.5124 43.8328H80.9668L82.1529 40.3212ZM72.5993 38.1869C75.8802 38.1885 80.8949 38.193 82.8715 38.1925L83.5722 36.1164C83.766 35.6711 83.4476 35.5787 83.1698 35.6235H74.6608C73.7912 35.6235 73.2868 36.1623 73.0944 36.7331C72.9309 37.2184 72.7654 37.7029 72.5993 38.1869ZM88.3682 43.8328H88.0346L91.544 33.4799H95.2738L93.8441 37.6982L101.978 33.4956L106.518 33.4965L97.6666 38.0858C97.4249 38.2191 97.4107 38.4456 97.6246 38.626L105.65 43.8328C104.13 43.8328 104.394 43.8328 102.874 43.8328C99.4422 43.8328 98.6552 42.8901 98.2861 42.6986L93.2527 39.4432L92.6214 41.305C92.0851 43.2842 90.5045 43.641 88.3682 43.8328ZM112.924 38.1997L113.797 35.6115H123.709C123.841 35.6143 123.947 35.7288 123.947 35.8697C123.947 35.9971 123.625 36.8709 123.561 37.0596C123.236 37.9726 122.717 38.2328 121.88 38.1997H112.924ZM112.202 40.3321H123.085C124.97 40.3321 126.599 39.4174 127.049 37.748L127.77 35.6115C128.244 33.8874 126.391 33.4637 125.216 33.4799H110.795L107.303 43.8328H107.491C109.362 43.8328 111.246 43.1752 111.875 41.3115L112.202 40.3321ZM134.893 33.5032H146.183C147.665 33.5032 149.481 33.8297 148.761 35.9691L146.942 41.3683C146.355 43.1122 145.035 43.6496 142.927 43.8345H142.382L143.568 40.3226H133.282C133.163 40.671 133.045 41.0194 132.927 41.3683C132.339 43.1136 131.02 43.6496 128.912 43.8345H128.37C129.256 41.2131 130.139 38.5904 131.021 35.9691C131.478 34.6136 133.082 33.5032 134.893 33.5032ZM144.287 38.1939L144.987 36.1178C145.181 35.6725 144.863 35.5801 144.585 35.6249H136.076C135.207 35.6249 134.702 36.1637 134.51 36.7348C134.346 37.2198 134.18 37.7043 134.014 38.1885C137.295 38.1899 142.31 38.1944 144.287 38.1939ZM154.622 39.6398L153.917 41.7461L162.123 41.7551C163.384 41.7455 164.222 41.5618 164.524 40.6866L164.763 39.9767C164.824 39.6661 164.552 39.6009 164.31 39.6398H154.622Z" fill="#FEFEFE"/>
</g>
<defs>
<clipPath id="clip0">
<rect width="215" height="78" fill="white"/>
</clipPath>
</defs>
</svg>
